<?xml version="1.0" encoding="UTF-8"?>
<!DOCTYPE svg PUBLIC "-//W3C//DTD SVG 1.1//EN" "http://www.w3.org/Graphics/SVG/1.1/DTD/svg11.dtd">
<!-- Creator: CorelDRAW -->
<svg xmlns="http://www.w3.org/2000/svg" xml:space="preserve" width="2048px" height="2048px" style="shape-rendering:geometricPrecision; text-rendering:geometricPrecision; image-rendering:optimizeQuality; fill-rule:evenodd; clip-rule:evenodd"
viewBox="0 0 2048 2048"
 xmlns:xlink="http://www.w3.org/1999/xlink">
 <defs>
  <style type="text/css">
   <![CDATA[
    .fil2 {fill:none}
    .fil1 {fill:#43A047}
    .fil4 {fill:#5C6BC0}
    .fil3 {fill:#7986CB}
    .fil0 {fill:#81C784}
    .fil5 {fill:#E8EAF6}
   ]]>
  </style>
   <clipPath id="id0">
    <path d="M1024 -0.0011811c565.539,0 1024,458.462 1024,1024 0,565.539 -458.462,1024 -1024,1024 -565.539,0 -1024,-458.462 -1024,-1024 0,-565.539 458.462,-1024 1024,-1024z"/>
   </clipPath>
 </defs>
 <g id="Layer_x0020_1">
  <metadata id="CorelCorpID_0Corel-Layer"/>
  <path class="fil0" d="M1024 -0.0011811c565.539,0 1024,458.462 1024,1024 0,565.539 -458.462,1024 -1024,1024 -565.539,0 -1024,-458.462 -1024,-1024 0,-565.539 458.462,-1024 1024,-1024z"/>
  <g style="clip-path:url(#id0)">
   <g id="_466480016">
    <g>
     <polygon id="_3893012081" class="fil1" points="1584,463.999 2719.88,1599.88 2719.88,1626.55 1584,490.666 "/>
     <polygon id="_389283208" class="fil1" points="1584,490.666 2719.88,1626.55 2719.88,2693.22 1584,1557.33 "/>
     <polygon id="_389309104" class="fil1" points="1584,1557.33 2719.88,2693.22 2719.88,2719.88 1584,1584 "/>
     <polygon id="_389307424" class="fil1" points="1584,1584 2719.88,2719.88 2693.22,2719.88 1557.33,1584 "/>
     <polygon id="_389283520" class="fil1" points="1557.33,1584 2693.22,2719.88 2159.94,2719.88 1024.06,1584 "/>
     <polygon id="_389300536" class="fil1" points="1024.06,1584 2159.94,2719.88 2159.88,2719.88 1024,1584 "/>
     <polygon id="_389306800" class="fil1" points="1024,1584 2159.88,2719.88 1626.55,2719.88 490.667,1584 "/>
     <polygon id="_389299816" class="fil1" points="490.667,1584 1626.55,2719.88 1599.88,2719.88 464,1584 "/>
    </g>
    <polygon id="_466480256" class="fil1" points="1024,463.999 1024.83,463.999 1557.33,463.999 1584,463.999 1584,490.666 1584,1557.33 1584,1584 1557.33,1584 1024.06,1584 1024,1584 490.667,1584 464,1584 464,1557.33 464,490.666 464,463.999 490.667,463.999 "/>
   </g>
  </g>
  <path class="fil2" d="M1024 -0.0011811c565.539,0 1024,458.462 1024,1024 0,565.539 -458.462,1024 -1024,1024 -565.539,0 -1024,-458.462 -1024,-1024 0,-565.539 458.462,-1024 1024,-1024z"/>
  <polygon class="fil3" points="1024,463.999 1024.83,463.999 1557.33,463.999 1584,463.999 1584,490.666 1584,1557.33 1584,1584 1557.33,1584 1024.06,1584 1024,1584 "/>
  <polygon class="fil4" points="490.667,463.999 1024,463.999 1024,1584 490.667,1584 464,1584 464,1557.33 464,490.666 464,463.999 "/>
  <polygon class="fil5" points="794.908,680.363 1278.55,680.363 1278.55,731.273 820.364,731.273 820.364,985.82 1100.36,985.82 1100.36,1036.73 820.364,1036.73 820.364,1316.73 1278.55,1316.73 1278.55,1367.64 794.908,1367.64 794.908,1367.64 769.453,1367.64 769.453,680.364 794.908,680.364 "/>
 </g>
</svg>
