<svg xmlns="http://www.w3.org/2000/svg" viewBox="0 0 48 48"><defs><style>.cls-1{fill:#fc6;}.cls-2{fill:#dad7e5;}.cls-3{fill:#6fabe6;}.cls-4{fill:#db5669;}.cls-5{fill:#82bcf4;}.cls-6{fill:#f26674;}.cls-7{fill:#edebf2;}.cls-8{fill:#ffde76;}.cls-9{fill:#9fdbf3;}.cls-10{fill:#b2e5fb;}.cls-11{fill:#7c7d7d;}.cls-12{fill:#919191;}</style></defs><title>Renewable energy Solar Panel</title><g id="Renewable_energy_Solar_Panel" data-name="Renewable energy Solar Panel"><path class="cls-1" d="M37,4V1a1,1,0,0,1,2,0V4A1,1,0,0,1,37,4Z"/><path class="cls-1" d="M35.17,6.17c-.55,0-.57-.15-2.83-2.41a1,1,0,0,1,1.42-1.42l2.12,2.12A1,1,0,0,1,35.17,6.17Z"/><path class="cls-1" d="M34,9H31a1,1,0,0,1,0-2h3A1,1,0,0,1,34,9Z"/><path class="cls-1" d="M33.05,14a1,1,0,0,1-.71-1.71l2.12-2.12a1,1,0,0,1,1.42,1.42C33.57,13.84,33.59,14,33.05,14Z"/><path class="cls-1" d="M37,15V12a1,1,0,0,1,2,0v3A1,1,0,0,1,37,15Z"/><path class="cls-1" d="M43,14c-.55,0-.57-.16-2.83-2.41a1,1,0,0,1,1.42-1.42l2.12,2.12A1,1,0,0,1,43,14Z"/><path class="cls-1" d="M45,9H42a1,1,0,0,1,0-2h3A1,1,0,0,1,45,9Z"/><path class="cls-1" d="M40.83,6.17a1,1,0,0,1-.71-1.71l2.12-2.12a1,1,0,0,1,1.42,1.42C41.35,6.06,41.37,6.17,40.83,6.17Z"/><path class="cls-2" d="M25,37H20a1,1,0,0,1,0-2h5A1,1,0,0,1,25,37Z"/><rect class="cls-3" x="25" y="33" width="22" height="14"/><rect class="cls-4" x="27" y="29" width="4" height="4"/><rect class="cls-4" x="41" y="29" width="4" height="4"/><path class="cls-5" d="M47,33V45H30a3,3,0,0,1-3-3V33Z"/><path class="cls-6" d="M45,29v3a3,3,0,0,1-3-3Z"/><path class="cls-6" d="M31,29v3a3,3,0,0,1-3-3Z"/><rect class="cls-2" x="12" y="23" width="4" height="20"/><path class="cls-7" d="M16,23c0,18.76-.1,18,0,18a2,2,0,0,1-2-2V23Z"/><path class="cls-2" d="M20,45v2H8V45a2,2,0,0,1,2-2h8A2,2,0,0,1,20,45Z"/><path class="cls-7" d="M20,45H12a2,2,0,0,1-2-2h8A2,2,0,0,1,20,45Z"/><path class="cls-8" d="M35.17,42.45l1-1.45H34a1,1,0,0,1-.83-1.55l2-3a1,1,0,0,1,1.66,1.1l-1,1.45c2.22,0,2.66-.14,3,.53s0,.92-2.05,4A1,1,0,0,1,35.17,42.45Z"/><path class="cls-9" d="M10,11H3L1,5H8C10,10.85,9.56,9.66,10,11Z"/><path class="cls-10" d="M9.67,10A7.34,7.34,0,0,1,2.33,5H8Z"/><path class="cls-9" d="M17,11H10L8,5h7C17,10.85,16.56,9.66,17,11Z"/><path class="cls-10" d="M16.67,10A7.34,7.34,0,0,1,9.33,5H15Z"/><path class="cls-9" d="M24,11H17L15,5h7C24,10.85,23.56,9.66,24,11Z"/><path class="cls-10" d="M23.67,10a7.34,7.34,0,0,1-7.34-5H22Z"/><path class="cls-9" d="M26,17H19l-2-6h7C26,16.85,25.56,15.66,26,17Z"/><path class="cls-10" d="M25.67,16a7.34,7.34,0,0,1-7.34-5H24Z"/><path class="cls-9" d="M28,23H21l-2-6h7C28,22.85,27.56,21.66,28,23Z"/><path class="cls-10" d="M27.67,22a7.34,7.34,0,0,1-7.34-5H26Z"/><path class="cls-9" d="M21,23H14l-2-6h7C21,22.85,20.56,21.66,21,23Z"/><path class="cls-10" d="M20.67,22a7.34,7.34,0,0,1-7.34-5H19Z"/><path class="cls-9" d="M12,17H5L3,11h7C12,16.85,11.56,15.66,12,17Z"/><path class="cls-10" d="M11.67,16a7.34,7.34,0,0,1-7.34-5H10Z"/><path class="cls-9" d="M14,23H7L5,17h7C14,22.85,13.56,21.66,14,23Z"/><path class="cls-10" d="M13.67,22a7.34,7.34,0,0,1-7.34-5H12Z"/><path class="cls-9" d="M19,17H12l-2-6h7C19,16.85,18.56,15.66,19,17Z"/><path class="cls-10" d="M18.67,16a7.34,7.34,0,0,1-7.34-5H17Z"/><path class="cls-1" d="M42,8a4,4,0,1,1-5.64-3.64A4,4,0,0,1,42,8Z"/><path class="cls-8" d="M41.64,9.64a4,4,0,0,1-5.28-5.28A4,4,0,0,1,41.64,9.64Z"/><path class="cls-11" d="M20,35v2a1,1,0,0,1-1,1H16V34h3A1,1,0,0,1,20,35Z"/><path class="cls-12" d="M20,35v2a3,3,0,0,1-3-3h2A1,1,0,0,1,20,35Z"/></g></svg>