<?xml version="1.0" encoding="utf-8"?>
<!-- Generator: Adobe Illustrator 18.0.0, SVG Export Plug-In . SVG Version: 6.00 Build 0)  -->
<!DOCTYPE svg PUBLIC "-//W3C//DTD SVG 1.1//EN" "http://www.w3.org/Graphics/SVG/1.1/DTD/svg11.dtd">
<svg version="1.1" id="ecommerce_1_" xmlns="http://www.w3.org/2000/svg" xmlns:xlink="http://www.w3.org/1999/xlink" x="0px"
	 y="0px" viewBox="0 0 115 115" style="enable-background:new 0 0 115 115;" xml:space="preserve">
<style type="text/css">
	.st0{fill:#FFEEAD;}
	.st1{fill:#C9B77D;}
	.st2{fill:#99734A;}
	.st3{fill:#FF6F69;}
	.st4{fill:#96CEB4;}
	.st5{fill:none;}
	.st6{fill:#AA9865;}
	.st7{fill:#71A58A;}
	.st8{fill:#FFCC5C;}
	.st9{fill:#825E3B;}
	.st10{fill:#639376;}
	.st11{fill:#E05858;}
	.st12{fill:#C1821E;}
	.st13{fill:#D6A041;}
	.st14{fill:#B28559;}
	.st15{fill:#BF4343;}
	.st16{fill:#D3C089;}
	.st17{fill:#7C5C3C;}
	.st18{fill:#FDCC5C;}
	.st19{fill:#FFFFFF;}
</style>
<g id="supply_chain_management_1_">
	<g>
		<g>
			<g>
				<path class="st3" d="M51.775,77.082h-1.187v11.081h3.207v-9.061C53.795,77.987,52.89,77.082,51.775,77.082z"/>
			</g>
		</g>
		<g>
			<g>
				<path class="st8" d="M28.216,58.344H6.746c-2.856,0-5.172,2.315-5.172,5.172v20.498c0,2.856,2.315,5.172,5.172,5.172h26.641
					v-25.67C33.387,60.659,31.072,58.344,28.216,58.344z"/>
			</g>
		</g>
		<g>
			<g>
				<path class="st4" d="M28.216,58.343H6.746c-2.856,0-5.172,2.316-5.172,5.172v0.599h31.813v-0.599
					C33.387,60.659,31.072,58.343,28.216,58.343z"/>
			</g>
		</g>
		<g>
			<g>
				<path class="st3" d="M47.644,64.141H33.387v25.044h14.399c1.931,0,3.496-1.565,3.496-3.496V67.78
					C51.282,65.77,49.653,64.141,47.644,64.141z"/>
			</g>
		</g>
		<g>
			<g>
				<rect x="1.575" y="87.703" class="st4" width="47.019" height="2.369"/>
			</g>
		</g>
		<g>
			<g>
				<path class="st4" d="M53.011,83.4H48.56c-0.876,0-1.586,0.71-1.586,1.586v3.499c0,0.876,0.71,1.586,1.586,1.586h4.451
					c0.876,0,1.586-0.71,1.586-1.586v-3.499C54.597,84.111,53.887,83.4,53.011,83.4z"/>
			</g>
		</g>
		<g>
			<g>
				<path class="st4" d="M6.089,83.4H1.637c-0.876,0-1.586,0.71-1.586,1.586v3.499c0,0.876,0.71,1.586,1.586,1.586h4.451
					c0.876,0,1.586-0.71,1.586-1.586v-3.499C7.675,84.111,6.965,83.4,6.089,83.4z"/>
			</g>
		</g>
		<g>
			<g>
				<path class="st2" d="M46.897,67.729c-0.945,0-1.672,0.79-1.541,1.675l0.952,6.412c0.108,0.726,0.765,1.266,1.541,1.266h3.433
					v-9.353H46.897z"/>
			</g>
		</g>
		<g>
			<g>
				<path class="st2" d="M43.905,68.735c-0.083-0.577-0.604-1.006-1.219-1.006h-5.483c-0.68,0-1.23,0.521-1.23,1.163v7.027
					c0,0.642,0.551,1.163,1.23,1.163h6.495c0.746,0,1.32-0.622,1.219-1.32L43.905,68.735z"/>
			</g>
		</g>
		<g>
			<g>
				<g>
					<path class="st7" d="M21.124,89.098c-0.823-2.652-3.295-4.577-6.217-4.577c-2.922,0-5.394,1.926-6.217,4.577
						c-0.297,0.957,0.447,1.925,1.449,1.925h9.536C20.677,91.023,21.421,90.055,21.124,89.098z"/>
				</g>
			</g>
			<g>
				<g>
					<circle class="st2" cx="14.907" cy="91.029" r="4.594"/>
				</g>
			</g>
			<g>
				<g>
					<circle class="st0" cx="14.907" cy="91.029" r="1.709"/>
				</g>
			</g>
		</g>
		<g>
			<g>
				<g>
					<path class="st7" d="M46.621,89.098c-0.823-2.652-3.295-4.577-6.217-4.577c-2.922,0-5.394,1.926-6.217,4.577
						c-0.297,0.957,0.447,1.925,1.448,1.925h9.536C46.175,91.023,46.918,90.055,46.621,89.098z"/>
				</g>
			</g>
			<g>
				<g>
					<circle class="st2" cx="40.405" cy="91.029" r="4.594"/>
				</g>
			</g>
			<g>
				<g>
					<circle class="st0" cx="40.405" cy="91.029" r="1.709"/>
				</g>
			</g>
		</g>
	</g>
	<g>
		<path class="st7" d="M81.784,79.443c2.928-1.73,4.898-4.906,4.898-8.549c0-5.488-4.455-9.936-9.951-9.936
			c-5.496,0-9.951,4.449-9.951,9.936c0,3.6,1.924,6.744,4.796,8.487c-1.665,1.428-2.725,3.54-2.725,5.904
			c0,0.113,0.012,0.222,0.017,0.333c1.756,1.029,3.734,1.718,5.851,1.964c0.178,0.021,0.358,0.035,0.537,0.049
			c0.404,0.032,0.809,0.062,1.222,0.062c0.525,0,1.044-0.027,1.556-0.08c0.191-0.02,0.375-0.059,0.563-0.086
			c2.122-0.299,4.098-1.035,5.84-2.12c0.001-0.041,0.006-0.081,0.006-0.122C84.442,82.954,83.409,80.87,81.784,79.443z"/>
		<path class="st7" d="M110.153,79.443c2.928-1.73,4.898-4.906,4.898-8.549c0-5.488-4.455-9.936-9.951-9.936
			c-5.496,0-9.951,4.449-9.951,9.936c0,3.6,1.924,6.744,4.796,8.487c-1.666,1.428-2.725,3.54-2.725,5.904
			c0,0.113,0.012,0.222,0.017,0.333c1.756,1.029,3.734,1.718,5.851,1.964c0.178,0.021,0.358,0.035,0.537,0.049
			c0.404,0.032,0.809,0.062,1.222,0.062c0.525,0,1.044-0.027,1.556-0.08c0.191-0.02,0.375-0.059,0.563-0.086
			c2.122-0.299,4.098-1.035,5.84-2.12c0.001-0.041,0.006-0.081,0.006-0.122C112.811,82.954,111.779,80.87,110.153,79.443z"/>
	</g>
	<g>
		<g>
			<g>
				<path class="st3" d="M97.302,84.917c-0.37,0.216-0.75,0.415-1.143,0.593c-0.438,0.2-0.886,0.38-1.35,0.53
					c0.017,0.134,0.046,0.266,0.046,0.404c0,1.37-0.887,2.546-2.174,3.143c-0.167,0.077-0.339,0.146-0.519,0.203
					c-0.004,0.001-0.009,0.002-0.013,0.004c-0.422,0.131-0.869,0.216-1.343,0.216c-0.473,0-0.921-0.085-1.343-0.216
					c-0.004-0.001-0.009-0.002-0.013-0.004c-0.18-0.057-0.352-0.126-0.519-0.203c-1.287-0.597-2.174-1.773-2.174-3.143
					c0-0.165,0.03-0.322,0.055-0.48c-0.45-0.154-0.886-0.334-1.312-0.536c-0.378-0.179-0.746-0.376-1.102-0.59
					c-2.183,1.831-3.573,4.576-3.573,7.648c0,0.144,0.016,0.284,0.022,0.427c2.248,1.32,4.78,2.202,7.491,2.518
					c0.228,0.027,0.458,0.045,0.688,0.063c0.518,0.042,1.036,0.079,1.564,0.079c0.673,0,1.337-0.035,1.992-0.102
					c0.244-0.025,0.48-0.076,0.721-0.11c2.717-0.383,5.247-1.327,7.477-2.719c0.001-0.053,0.008-0.104,0.008-0.157
					C100.788,89.456,99.433,86.747,97.302,84.917z"/>
			</g>
		</g>
		<g>
			<g>
				<g>
					<path class="st1" d="M94.809,86.04c-0.415,0.134-0.839,0.249-1.272,0.34c-0.847,0.178-1.723,0.275-2.623,0.275
						c-0.987,0-1.943-0.124-2.865-0.337c-0.421-0.097-0.833-0.216-1.238-0.354c-0.025,0.159-0.055,0.316-0.055,0.48
						c0,1.37,0.887,2.546,2.174,3.143c0.167,0.077,0.339,0.146,0.519,0.203c0.004,0.001,0.009,0.002,0.013,0.004
						c0.422,0.131,0.87,0.216,1.343,0.216c0.473,0,0.921-0.085,1.343-0.216c0.004-0.001,0.009-0.002,0.013-0.004
						c0.18-0.057,0.352-0.126,0.519-0.203c1.287-0.597,2.174-1.773,2.174-3.143C94.856,86.306,94.827,86.174,94.809,86.04z"/>
				</g>
			</g>
			<circle class="st0" cx="90.915" cy="74.035" r="12.74"/>
			<g>
				<g>
					<g>
						<ellipse class="st2" cx="85.635" cy="77.58" rx="1.466" ry="1.885"/>
					</g>
				</g>
				<g>
					<g>
						<ellipse class="st2" cx="95.198" cy="77.58" rx="1.466" ry="1.885"/>
					</g>
				</g>
				<path class="st2" d="M90.915,61.294c-7.036,0-12.74,5.704-12.74,12.74c0,1.456,0.256,2.849,0.706,4.153
					c0.003-0.026,0.005-0.053,0.008-0.079c0.039-0.398,0.079-0.797,0.175-1.184c0.145-0.583,0.416-1.126,0.701-1.655
					c0.621-1.153,1.337-2.25,2.104-3.312c2.035-0.086,4.101,0.004,6.126-0.216c2.689-0.293,5.336-1.216,7.595-2.69
					c0.641,1.929,1.921,3.644,3.601,4.789c0.675,0.46,1.413,0.823,2.185,1.088c0.463,1.733,0.681,3.527,0.656,5.321
					c1.03-1.839,1.623-3.956,1.623-6.214C103.656,66.998,97.952,61.294,90.915,61.294z"/>
			</g>
		</g>
	</g>
	<g>
		<g>
			<path class="st7" d="M95.348,32.408c-0.399-0.269-0.541-0.788-0.309-1.21l1.922-3.507c0.355-0.647-0.162-1.426-0.896-1.351
				l-13.837,1.416c-0.638,0.065-1.013,0.749-0.725,1.323l6.249,12.426c0.332,0.659,1.267,0.676,1.621,0.029l1.492-2.721
				c0.301-0.548,0.984-0.568,1.479-0.185c4.203,3.245,6.704,9.414,2.684,16.748c-0.006,0.01-0.011,0.02-0.017,0.03
				c-0.455,0.825,0.447,1.741,1.254,1.255c1.962-1.18,3.616-2.839,4.763-4.932C104.584,45.243,102.021,36.908,95.348,32.408z"/>
		</g>
	</g>
	<g>
		<g>
			<path class="st7" d="M74.47,96.911l-13.905,0.333c-0.738,0.018-1.153,0.856-0.72,1.453l1.822,2.512
				c0.367,0.506,0.092,1.133-0.465,1.417c-4.731,2.411-11.377,2.033-16.287-4.738c-0.007-0.009-0.014-0.019-0.02-0.028
				c-0.551-0.764-1.765-0.34-1.671,0.597c0.227,2.278,1.019,4.483,2.421,6.415c4.341,5.987,12.971,7.236,19.893,3.129
				c0.414-0.246,0.944-0.152,1.226,0.238l2.348,3.238c0.433,0.597,1.359,0.463,1.605-0.232l4.639-13.113
				C75.57,97.527,75.112,96.895,74.47,96.911z"/>
		</g>
	</g>
	<g>
		<g>
			<path class="st7" d="M35.432,27.495c-2.098-0.916-4.408-1.304-6.779-1.028c-7.346,0.857-12.658,7.772-12.462,15.819
				c0.012,0.481-0.33,0.897-0.808,0.953l-3.972,0.463c-0.733,0.086-1.069,0.958-0.583,1.513l9.167,10.461
				c0.423,0.483,1.198,0.392,1.498-0.175l6.513-12.29c0.346-0.652-0.182-1.424-0.915-1.339l-3.082,0.36
				c-0.621,0.072-1.033-0.474-1.008-1.099c0.212-5.306,3.793-10.917,12.101-11.886c0.011-0.001,0.023-0.003,0.034-0.004
				C36.07,29.138,36.295,27.872,35.432,27.495z"/>
		</g>
	</g>
	<g>
		<g>
			<g>
				<g>
					<path class="st2" d="M46.058,14.038c-0.483,0-0.874,0.391-0.874,0.874v3.886c0,0.483,0.391,0.874,0.874,0.874
						s0.874-0.391,0.874-0.874v-3.886C46.932,14.43,46.54,14.038,46.058,14.038z"/>
				</g>
			</g>
			<g>
				<g>
					<path class="st2" d="M72.744,14.038c-0.483,0-0.874,0.391-0.874,0.874v3.886c0,0.483,0.391,0.874,0.874,0.874
						c0.483,0,0.874-0.391,0.874-0.874v-3.886C73.618,14.43,73.226,14.038,72.744,14.038z"/>
				</g>
			</g>
			<g>
				<g>
					<path class="st3" d="M77.907,33.653c-0.002-2.666-2.165-4.826-4.831-4.824L46.393,28.85c-2.666,0.002-4.826,2.165-4.824,4.831
						l0.012,15.953c0.002,2.666,2.165,4.826,4.831,4.824l26.683-0.02c2.666-0.002,4.826-2.165,4.824-4.831L77.907,33.653z"/>
				</g>
			</g>
			<g>
				<g>
					<path class="st11" d="M77.907,33.653c-0.002-2.666-2.165-4.826-4.831-4.824L46.393,28.85c-2.666,0.002-4.826,2.165-4.824,4.831
						l0.004,4.608c0.23,0.048,0.468,0.073,0.713,0.073h1.145c1.934,0,3.501-1.567,3.501-3.501c0,1.934,1.568,3.501,3.501,3.501
						h1.145c1.934,0,3.501-1.567,3.501-3.501c0,1.934,1.568,3.501,3.501,3.501h1.145c1.934,0,3.501-1.567,3.501-3.501
						c0,1.934,1.568,3.501,3.501,3.501h1.145c1.934,0,3.501-1.567,3.501-3.501c0,1.934,1.568,3.501,3.501,3.501h1.145
						c0.697,0,1.342-0.209,1.888-0.56L77.907,33.653z"/>
				</g>
			</g>
			<g>
				<g>
					<g>
						<path class="st4" d="M40.748,19.033c-1.085,0-1.964,0.88-1.964,1.964v9.005h8.148V19.033H40.748z"/>
					</g>
				</g>
				<g>
					<g>
						<rect x="46.932" y="19.033" class="st0" width="8.148" height="10.969"/>
					</g>
				</g>
				<g>
					<g>
						<rect x="55.08" y="19.033" class="st4" width="8.148" height="10.969"/>
					</g>
				</g>
				<g>
					<g>
						<rect x="63.228" y="19.033" class="st0" width="8.148" height="10.969"/>
					</g>
				</g>
				<g>
					<g>
						<path class="st4" d="M77.56,19.033h-6.184v10.969h8.148v-9.005C79.524,19.913,78.645,19.033,77.56,19.033z"/>
					</g>
				</g>
				<g>
					<g>
						<path class="st7" d="M38.784,30.003v2.249c0,1.934,1.568,3.501,3.501,3.501h1.145c1.934,0,3.501-1.568,3.501-3.501v-2.249
							H38.784z"/>
					</g>
				</g>
				<g>
					<g>
						<path class="st1" d="M46.932,30.003v2.249c0,1.934,1.568,3.501,3.501,3.501h1.145c1.934,0,3.501-1.568,3.501-3.501v-2.249
							H46.932z"/>
					</g>
				</g>
				<g>
					<g>
						<path class="st7" d="M55.08,30.003v2.249c0,1.934,1.568,3.501,3.501,3.501h1.145c1.934,0,3.501-1.568,3.501-3.501v-2.249
							H55.08z"/>
					</g>
				</g>
				<g>
					<g>
						<path class="st1" d="M63.228,30.003v2.249c0,1.934,1.568,3.501,3.501,3.501h1.145c1.934,0,3.501-1.568,3.501-3.501v-2.249
							H63.228z"/>
					</g>
				</g>
				<g>
					<g>
						<path class="st7" d="M71.376,30.003v2.249c0,1.934,1.568,3.501,3.501,3.501h1.145c1.934,0,3.501-1.568,3.501-3.501v-2.249
							H71.376z"/>
					</g>
				</g>
			</g>
			<g>
				<g>
					<path class="st0" d="M55.755,40.46h-4.173c-1.303,0-2.36,1.056-2.36,2.36v11.628h8.892V42.819
						C58.115,41.516,57.059,40.46,55.755,40.46z"/>
				</g>
			</g>
			<g>
				<g>
					<path class="st7" d="M54.97,41.713h-2.603c-0.983,0-1.78,0.797-1.78,1.78v10.955h6.162V43.493
						C56.75,42.51,55.953,41.713,54.97,41.713z"/>
				</g>
			</g>
			<g>
				<g>
					<path class="st0" d="M72.094,40.917h-7.777c-1.258,0-2.278,1.02-2.278,2.278v5.844c0,1.258,1.02,2.278,2.278,2.278h7.777
						c1.258,0,2.278-1.02,2.278-2.278v-5.844C74.372,41.937,73.352,40.917,72.094,40.917z"/>
				</g>
			</g>
			<g>
				<g>
					<path class="st7" d="M71.418,42.009h-6.426c-1.011,0-1.831,0.82-1.831,1.831v4.554c0,1.011,0.82,1.831,1.831,1.831h6.426
						c1.011,0,1.831-0.82,1.831-1.831V43.84C73.249,42.829,72.429,42.009,71.418,42.009z"/>
				</g>
			</g>
			<g>
				<g>
					<path class="st4" d="M71.432,42.009h-6.453c-0.573,0-1.077,0.274-1.41,0.695l9.103,7.018c0.354-0.337,0.578-0.812,0.578-1.343
						v-4.526C73.249,42.835,72.436,42.009,71.432,42.009z"/>
				</g>
			</g>
			<g>
				<g>
					<path class="st8" d="M73.344,3.145h-28.38c-1.678,0-3.038,1.36-3.038,3.038v8.739c0,1.678,1.36,3.038,3.038,3.038h28.38
						c1.678,0,3.038-1.36,3.038-3.038V6.182C76.381,4.505,75.022,3.145,73.344,3.145z"/>
				</g>
			</g>
			<g>
				<g>
					<path class="st0" d="M71.658,5.049H46.65c-1.347,0-2.438,1.092-2.438,2.438v6.129c0,1.347,1.092,2.438,2.438,2.438h25.009
						c1.347,0,2.438-1.092,2.438-2.438V7.487C74.097,6.141,73.005,5.049,71.658,5.049z"/>
				</g>
			</g>
			<g>
				<g>
					<rect x="67.72" y="41.644" class="st0" width="1.035" height="8.96"/>
				</g>
			</g>
			<g>
				<g>
					<path class="st3" d="M69.503,8.178h-19.59c-0.379,0-0.69,0.31-0.69,0.69c0,0.38,0.31,0.69,0.69,0.69h19.59
						c0.379,0,0.69-0.31,0.69-0.69C70.192,8.489,69.882,8.178,69.503,8.178z"/>
				</g>
			</g>
			<g>
				<g>
					<path class="st3" d="M69.503,11.628h-19.59c-0.379,0-0.69,0.311-0.69,0.69c0,0.38,0.31,0.69,0.69,0.69h19.59
						c0.379,0,0.69-0.31,0.69-0.69C70.192,11.938,69.882,11.628,69.503,11.628z"/>
				</g>
			</g>
		</g>
		<g>
			<g>
				<circle class="st0" cx="55.403" cy="47.909" r="0.723"/>
			</g>
		</g>
	</g>
</g>
</svg>
