<?xml version="1.0" encoding="utf-8"?>
<!-- Generator: Adobe Illustrator 16.0.0, SVG Export Plug-In . SVG Version: 6.00 Build 0)  -->
<!DOCTYPE svg PUBLIC "-//W3C//DTD SVG 1.1//EN" "http://www.w3.org/Graphics/SVG/1.1/DTD/svg11.dtd">
<svg version="1.1" id="Layer_1" xmlns="http://www.w3.org/2000/svg" xmlns:xlink="http://www.w3.org/1999/xlink" x="0px" y="0px"
	 width="780px" height="496px" viewBox="0 0 780 496" enable-background="new 0 0 780 496" xml:space="preserve">
<path fill="#41C363" d="M390,0c136.957,0,248,111.043,248,248S526.957,496,390,496S142,384.957,142,248S253.043,0,390,0L390,0z"/>
<path fill-rule="evenodd" clip-rule="evenodd" d="M384.228,161.491c1.617,0,2.724-0.002,3.832,0
	c13.503,0.02,27.006-0.014,40.509,0.111c2.39,0.022,3.106-0.743,3.113-3.072c0.02-7.314,0.098-7.315-7.087-7.303
	c-6.193,0.011-12.385,0.027-18.577,0.041c-0.83,0.001-1.659,0-2.721-0.545c4.074-3.635,8.116-7.307,12.259-10.861
	c0.548-0.47,1.607-0.472,2.431-0.472c11.094-0.009,22.189,0.042,33.285,0.014c1.442-0.003,2.293,0.37,3.025,1.735
	c2.049,3.822,5.354,5.8,9.729,5.439c4.292-0.354,7.602-3.418,8.708-7.657c1.185-4.534-0.939-7.939-4.07-10.698
	c-3.351-2.952-10.076-1.717-13.184,2.363c-1.163,1.526-2.359,1.899-4.115,1.895c-12.386-0.036-24.771,0.081-37.155-0.026
	c-2.611-0.022-4.536,0.788-6.42,2.495c-5.544,5.021-11.16,9.966-16.864,14.806c-1.005,0.853-2.557,1.479-3.862,1.491
	c-16.168,0.147-32.338,0.202-48.507,0.13c-1.332-0.006-2.988-0.772-3.933-1.736c-4.151-4.234-8.206-8.576-12.065-13.075
	c-1.768-2.062-3.248-4.464-4.401-6.927c-0.825-1.759-0.886-3.875-1.372-6.238c22.679,0,44.728,0,66.932,0c0-1.371,0-2.437,0-3.739
	c-21.247,0-42.358,0-63.47,0c-0.128-0.268-0.256-0.536-0.385-0.803c1.94-1.213,3.741-2.83,5.849-3.553
	c3.962-1.359,8.137-2.086,12.157-3.293c4.17-1.252,8.28-2.717,12.379-4.194c0.854-0.308,1.903-0.904,2.248-1.652
	c1.43-3.099,4.111-2.494,6.602-2.491c19.868,0.024,39.736,0.088,59.604,0.061c2.042-0.003,3.366,0.353,4.552,2.327
	c2.303,3.839,6.95,5.278,11.034,3.94c4.143-1.357,6.92-5.242,6.858-9.591c-0.061-4.292-3.011-8.063-7.254-9.272
	c-4.167-1.188-8.58,0.485-10.905,4.323c-0.77,1.271-1.439,2.02-3.119,2.02c-34.059-0.005-68.118,0.063-102.176,0.116
	c-0.677,0-1.354,0-2.048-0.355c10.66-1.016,21.319-2.031,31.979-3.047c0.151-0.269,0.303-0.539,0.454-0.808
	c-1.324-1.161-2.758-2.22-3.947-3.505c-1.979-2.138-4.042-4.263-5.633-6.681c-2.604-3.955-1.878-7.46,2.439-9.402
	c4.414-1.985,9.153-3.553,13.91-4.415c16.475-2.986,33.213-4.137,49.837-2.896c23.027,1.72,45.058,7.464,64.423,20.977
	c1.956,1.365,2.294,2.386,1.244,4.553c-1.683,3.469-3.77,7.069-4.149,10.772c-0.735,7.161-1.263,14.595,4.397,20.574
	c1.99,2.1,3.446,4.775,5.634,6.604c6.78,5.667,14.249,9.46,23.543,7.114c1.818-0.458,3.729-0.618,5.608-0.736
	c1.856-0.116,3.14-0.531,2.275-3.018c3.213,6.863,5.807,13.7,6.316,20.985c0.616,8.807,0.897,17.667,0.681,26.487
	c-0.096,3.91-1.016,8.19-2.864,11.594c-5.713,10.517-5.234,20.473,0.975,30.476c4.117,6.634,8.073,13.368,12.092,20.063
	c1.679,2.798,3.45,5.551,4.965,8.437c1.996,3.806,1.347,6.834-1.858,9.677c-2.988,2.65-6.574,3.976-10.462,4.63
	c-6.501,1.097-7.157,1.792-6.877,8.384c0.12,2.814,0.688,5.62,1.168,8.409c0.764,4.427-0.058,6.294-3.942,8.478
	c-0.823,0.464-1.663,0.899-2.518,1.302c-1.646,0.774-2.114,1.988-1.231,3.565c2.161,3.859,1.262,7.474-0.831,10.975
	c-0.882,1.472-1.923,2.849-2.889,4.27c-2.174,3.197-2.889,6.677-2.442,10.537c0.464,4.003,0.827,8.044,0.83,12.069
	c0.007,6.235-2.47,9.438-8.388,11.511c-7.196,2.519-14.632,2.978-22.146,2.301c-6.334-0.571-12.637-1.521-18.977-1.985
	c-3.486-0.255-7.032,0.004-10.529,0.294c-3.563,0.294-6.7,1.823-8.882,4.688c-4.104,5.394-8.035,10.92-12.022,16.402
	c-0.448,0.615-0.796,1.306-0.844,1.94c0.768-7.802,2.067-15.593,2.202-23.404c0.36-20.773-9.104-35.857-28.041-44.369
	c-9.216-4.143-19.01-6.981-28.467-10.605c-5.52-2.114-10.989-4.414-16.294-7.013c-3.561-1.744-6.424-4.526-8.576-8.559
	c19.249,0,38.173,0,57.038,0c0.584-3.817,0.557-3.856-2.873-3.855c-17.374,0.007-34.747,0.018-52.12,0.025
	c-3.902,0.001-5.749-2.596-4.212-6.306c0.704-1.697,2.054-3.133,3.134-4.67c0.244-0.349,0.583-0.63,0.876-0.945
	c6.454-6.901,6.455-9.516-0.278-16.103c-2.269-2.219-4.749-4.236-7.254-6.188c-0.811-0.632-1.987-0.985-3.035-1.094
	c-12.39-1.286-24.788-2.501-37.187-4.026c0.952,0,1.904,0,2.855,0c19.523,0.011,39.047,0.053,58.57-0.012
	c2.082-0.007,3.461,0.563,4.807,2.197c5.579,6.767,11.264,13.449,17.045,20.043c0.828,0.944,2.394,1.75,3.625,1.76
	c16.599,0.131,33.199,0.11,49.797,0.116c0.845,0.001,1.69-0.108,2.808-0.185c0-2.047,0.119-3.934-0.074-5.787
	c-0.057-0.543-0.927-1.198-1.56-1.431c-0.685-0.251-1.527-0.073-2.302-0.073c-14.879,0.008-29.759-0.015-44.637,0.067
	c-1.827,0.01-3.018-0.468-4.066-2.004c-3.277-4.803-6.694-9.51-10.33-14.639c4.134,0,7.795,0,11.457,0
	c6.451,0.001,12.902-0.052,19.351,0.065c0.91,0.017,2.09,0.638,2.663,1.361c3.865,4.87,10.065,5.649,14.498,1.689
	c4.283-3.826,4.313-10.527,0.064-14.405c-4.325-3.947-10.564-3.188-14.521,1.61c-0.639,0.773-1.94,1.413-2.938,1.417
	c-27.522,0.099-55.044,0.111-82.566,0.105c-0.812,0-1.845-0.104-2.402-0.588c-4.014-3.491-8.072-6.954-11.805-10.733
	c-1.353-1.37-2.235-3.501-2.65-5.431c-0.604-2.812,0.215-3.506,3.044-3.505c27.006,0.012,54.013,0.026,81.019,0.042
	c25.545,0.015,51.089,0.042,76.633,0.011c1.084-0.001,2.698,0.783,3.028-1.334c0.379-2.431-0.957-2.582-2.858-2.577
	c-23.996,0.056-47.992,0.057-71.988,0.069c-27.608,0.014-55.216,0.025-82.825,0.038c-0.754,0-1.509,0-2.527-0.524
	c1.864-1.248,3.625-2.698,5.611-3.706c6.818-3.457,13.787-6.622,20.555-10.17c4.244-2.226,8.388-4.722,12.292-7.497
	c3.865-2.748,5.571-6.643,4.381-11.523c-0.459-1.89-1.414-2.84-3.405-3.214c-6.75-1.267-13.463-2.726-20.2-4.417
	c0.409-0.022,0.817-0.063,1.226-0.063c13.932,0.015,27.864,0.068,41.795,0.01c1.76-0.007,2.781,0.533,3.724,2.009
	c5.458,8.549,11.058,17.009,16.508,25.563c1.002,1.574,2.116,2.158,3.959,2.147c9.977-0.06,19.953,0.029,29.93-0.009
	c1.684-0.007,2.765,0.38,3.753,1.938c2.521,3.975,7.012,5.413,11.243,3.943c3.978-1.382,6.732-5.347,6.614-9.517
	c-0.122-4.241-3.315-8.244-7.365-9.23c-4.381-1.068-8.635,0.738-10.921,4.844c-0.72,1.292-1.456,1.825-2.979,1.809
	c-7.998-0.082-15.998-0.077-23.996,0.003c-1.588,0.016-2.458-0.417-3.124-1.927C390.042,174.023,387.237,168.046,384.228,161.491z"
	/>
<path fill-rule="evenodd" clip-rule="evenodd" d="M272.737,117.382c0.946-1.31,1.817-2.684,2.872-3.9
	c0.458-0.528,1.29-0.731,2.214-0.801c-20.428,35.91-21.934,72.677-6.718,109.808c-0.622,0.996-1.008,1.615-1.395,2.234
	c0.31-0.06,0.619-0.121,0.928-0.18c1.101,1.44,2.475,2.749,3.248,4.348c1.691,3.5,2.975,7.195,4.632,10.712
	c0.808,1.716,2.166,3.165,3.128,4.819c5.378,9.241,11.085,18.317,15.963,27.817c5.793,11.283,10.281,23.153,13.187,35.556
	c0.202,0.86,0.052,1.809,0.033,2.716c-0.009,0.418-0.301,1.022-0.116,1.223c3.254,3.544,2.727,8.198,3.417,12.381
	c1.825,11.053,2.104,22.2,0.662,33.657c-0.916-15.528-4.786-30.086-9.776-44.411c-3.752-10.772-8.82-20.921-14-31.052
	c-3.268-6.388-7.251-12.288-11.168-18.245c-3.724-5.664-7.826-11.085-11.419-16.827c-9.926-15.863-16.983-32.797-18.837-51.647
	c-1.601-16.28,0.25-32.122,6.288-47.299c2.903-7.298,6.634-14.288,10.308-21.25c1.806-3.42,4.335-6.458,6.536-9.669
	C272.724,117.373,272.737,117.382,272.737,117.382z"/>
<path fill-rule="evenodd" clip-rule="evenodd" d="M429.973,412.08c-3.744,1.099-7.421,2.625-11.243,3.227
	c-18.915,2.979-38,2.943-57.075,2.634c-13.221-0.213-26.424-0.88-39.438-3.508c-1.66-0.335-3.3-0.823-4.893-1.397
	c-0.647-0.234-1.689-1.06-1.607-1.319c0.252-0.798,0.824-1.862,1.513-2.091c2.593-0.858,5.247-1.772,7.94-2.039
	c10.582-1.044,21.175-2.057,31.787-2.679c8.055-0.472,16.153-0.623,24.218-0.4c14.065,0.388,28.158,0.75,42.027,3.541
	c1.546,0.312,3.008,1.059,4.508,1.603c-0.001,0,0.07-0.066,0.07-0.066c0.356,0.81,0.714,1.618,1.071,2.427l-0.086-0.05
	C429.169,412,429.57,412.04,429.973,412.08z"/>
<path fill-rule="evenodd" clip-rule="evenodd" d="M278.463,427.402c0,0-0.07,0.065-0.069,0.065c1.314,0.34,3.789-0.308,2.153,2.536
	c-0.003-0.4-0.007-0.801-0.01-1.201l0.068-0.068c-0.385,0.35-0.771,0.697-1.156,1.046l0.085,0.049
	C279.177,429.021,278.82,428.211,278.463,427.402z"/>
<path fill-rule="evenodd" clip-rule="evenodd" fill="#FFFFFF" d="M280.536,428.803c0.004,0.4,0.007,0.801,0.011,1.201l0.11-0.106
	c-0.402-0.039-0.805-0.078-1.207-0.117c0.385-0.349,0.771-0.696,1.156-1.046L280.536,428.803z"/>
<path fill-rule="evenodd" clip-rule="evenodd" fill="#FFFFFF" d="M459.666,247.35c0,0-0.012-0.009-0.012-0.01
	C459.654,247.339,459.666,247.35,459.666,247.35z"/>
<path fill-rule="evenodd" clip-rule="evenodd" fill="#FFFFFF" d="M278.463,427.402c0.357,0.809,0.714,1.618,1.071,2.427
	C279.177,429.021,278.82,428.211,278.463,427.402z"/>
<path fill-rule="evenodd" clip-rule="evenodd" fill="#FFFFFF" d="M280.605,428.734l-0.068,0.068
	C280.536,428.803,280.605,428.734,280.605,428.734z"/>
</svg>
