<?xml version="1.0" encoding="utf-8"?>
<!-- Generator: Adobe Illustrator 16.0.0, SVG Export Plug-In . SVG Version: 6.00 Build 0)  -->
<!DOCTYPE svg PUBLIC "-//W3C//DTD SVG 1.1//EN" "http://www.w3.org/Graphics/SVG/1.1/DTD/svg11.dtd">
<svg version="1.1" xmlns="http://www.w3.org/2000/svg" xmlns:xlink="http://www.w3.org/1999/xlink" x="0px" y="0px" width="780px"
	 height="496px" viewBox="0 0 780 496" enable-background="new 0 0 780 496" xml:space="preserve">
<g id="Layer_1">
	<path fill="#41C363" d="M390,0c136.957,0,248,111.043,248,248S526.957,496,390,496S142,384.957,142,248S253.043,0,390,0L390,0z"/>
</g>
<g id="Layer_2">
	<path fill-rule="evenodd" clip-rule="evenodd" d="M511.179,263.08c6.29-5.494,7.37-11.473,4.656-18.602
		c-1.565-4.108-2.818-8.339-4.115-12.546c-2.911-9.449-9.237-12.793-18.556-9.745c-1.382,0.453-2.768,0.898-4.771,0.615
		c1.14-1.675,2.288-3.344,3.419-5.025c4.325-6.437,3.293-13.32-2.883-18.079c-4.331-3.335-8.781-6.518-13.239-9.683
		c-7.513-5.334-14.216-4.249-19.704,3.091c-0.965,1.291-1.98,2.546-3.946,3.551c-0.076-1.737-0.192-3.473-0.223-5.211
		c-0.147-8.667-4.95-13.626-13.504-13.764c-5.467-0.088-10.938-0.094-16.404,0c-8.561,0.147-13.441,5.148-13.549,13.74
		c-0.021,1.728-0.002,3.457-0.002,5.185c-0.398,0.11-0.799,0.221-1.198,0.332c-1.148-1.518-2.284-3.046-3.447-4.553
		c-4.93-6.382-11.754-7.52-18.412-2.906c-4.742,3.287-9.415,6.681-13.997,10.185c-6.413,4.904-7.326,11.67-2.661,18.406
		c1.082,1.562,2.157,3.127,4.046,5.864c-3.505-1.021-5.61-1.695-7.748-2.245c-7.149-1.842-13.143,1.201-15.654,8.108
		c-1.71,4.705-3.164,9.504-4.715,14.266c-2.899,8.896-2.175,11.845,5.302,19.058c-2.335,0-3.873,0-5.409,0
		c-28.253,0.002-56.535-0.781-84.752,0.244c-24.295,0.883-47.967-18.162-39.258-51.947c7.552-29.297,34.379-47.263,64.423-43.535
		c3.073,0.381,4.426-0.335,5.727-3.312c28.764-65.808,111.835-79.359,159.7-26.066c2.048,2.281,3.526,2.415,6.126,1.179
		c29.542-14.04,63.531-9.15,87.524,12.47c23.854,21.494,32.188,55.119,21.278,85.858c-5.292,14.912-18.361,24.578-34.141,25.037
		C524.46,263.24,517.817,263.08,511.179,263.08z"/>
	<path fill-rule="evenodd" clip-rule="evenodd" d="M477.822,222.875c2.188,3.205,3.996,6.204,6.202,8.875
		c0.695,0.843,2.564,1.33,3.701,1.08c3.097-0.679,6.101-1.797,9.115-2.819c3.183-1.078,5.373-0.134,6.439,3.07
		c1.772,5.331,3.494,10.679,5.211,16.029c0.954,2.975-0.034,5.09-2.986,6.135c-3.004,1.064-6.172,1.756-9.021,3.125
		c-1.247,0.602-2.62,2.451-2.671,3.781c-0.385,10.064-0.287,10.068,9.26,13.225c6.226,2.059,6.692,2.971,4.669,9.244
		c-1.444,4.482-2.931,8.949-4.366,13.434c-1.092,3.412-3.268,4.576-6.665,3.342c-0.145-0.053-0.287-0.1-0.434-0.143
		c-11.253-3.27-11.253-3.27-18.426,7.225c2.097,2.947,4.192,6.084,6.486,9.068c2.431,3.166,2.219,5.742-1.117,8.09
		c-4.222,2.971-8.421,5.984-12.531,9.109c-3.022,2.299-5.529,2.125-7.73-1.037c-0.348-0.5-0.725-0.977-1.086-1.465
		c-5.902-7.977-5.939-8.086-15.276-4.799c-1.356,0.477-2.781,2.447-3.063,3.938c-0.499,2.641-0.255,5.449-0.123,8.178
		c0.194,4.008-1.546,5.959-5.607,5.916c-5.164-0.059-10.332-0.031-15.498-0.006c-3.733,0.018-5.704-1.67-5.542-5.533
		c0.02-0.453,0.001-0.912-0.004-1.367c-0.091-10.279-0.063-10.373-9.716-13.371c-1.256-0.389-3.46,0.346-4.418,1.34
		c-2.091,2.162-3.678,4.816-5.444,7.289c-1.914,2.68-4.201,3.377-6.998,1.354c-4.556-3.293-9.097-6.605-13.645-9.91
		c-2.741-1.992-3.024-4.363-1.089-7.074c0.441-0.617,0.904-1.219,1.345-1.84c5.748-8.064,5.825-8.125-0.362-16.049
		c-0.816-1.047-3.009-1.725-4.375-1.488c-2.964,0.512-5.81,1.717-8.698,2.656c-3.206,1.041-5.34-0.066-6.394-3.225
		c-1.779-5.33-3.546-10.662-5.258-16.016c-0.947-2.965,0.111-5.049,3.039-6.127c0.853-0.316,1.748-0.518,2.614-0.799
		c10.011-3.242,10.079-3.25,9.068-13.865c-0.106-1.113-1.405-2.557-2.506-3.043c-2.765-1.221-5.724-2.008-8.622-2.912
		c-3.39-1.059-4.623-3.188-3.494-6.627c1.706-5.191,3.38-10.394,5.063-15.593c1.12-3.458,3.437-4.394,6.759-3.224
		c0.43,0.151,0.857,0.313,1.291,0.451c10.072,3.207,10.139,3.251,15.946-5.401c0.664-0.99,0.582-3.106-0.035-4.207
		c-1.476-2.63-3.476-4.968-5.266-7.421c-2.084-2.856-1.779-5.33,1.136-7.436c4.433-3.203,8.836-6.446,13.275-9.64
		c2.688-1.935,5.084-1.644,7.082,1.087c0.358,0.49,0.729,0.971,1.088,1.462c6.073,8.29,6.104,8.379,15.646,5.034
		c1.254-0.439,2.634-2.27,2.828-3.619c0.431-2.978,0.173-6.059,0.141-9.098c-0.034-3.336,1.475-5.138,4.911-5.136
		c5.622,0.004,11.244-0.006,16.866,0.003c3.132,0.005,4.817,1.518,4.831,4.725c0.004,0.76,0.011,1.519,0.017,2.279
		c0.057,10.26,0.031,10.352,9.938,13.092c1.259,0.348,3.393-0.447,4.352-1.449c2.086-2.173,3.665-4.828,5.468-7.273
		c1.989-2.7,4.375-3.06,7.082-1.104c4.557,3.291,9.11,6.586,13.639,9.914c2.554,1.875,2.815,4.203,1.04,6.735
		C482.643,216.271,480.301,219.441,477.822,222.875z M478.775,265.555c-0.148-26.397-22.331-48.143-48.91-47.946
		c-26.896,0.199-48.568,22.08-48.481,48.954c0.086,26.965,22.217,48.625,49.45,48.4
		C457.541,314.742,478.928,292.701,478.775,265.555z"/>
	<path fill-rule="evenodd" clip-rule="evenodd" d="M319.019,390.352c-0.98-0.857-2.422-1.689-3.214-2.934
		c-0.78-1.229-1.093-2.848-1.276-4.338c-0.492-4.014-2.71-4.867-6.598-5.631c-6.448-1.262-10.669-0.336-13.046,6.26
		c-0.992,2.754-3.492,3.182-6.069,1.732c-3.441-1.938-6.793-4.037-10.287-5.873c-3.446-1.809-4.435-4.529-2.052-7.406
		c4.115-4.965,2.751-8.467-0.953-13.197c-3.015-3.848-5.352-4.631-9.711-3.313c-6.256,1.896-6.868,1.313-8.539-4.941
		c-0.746-2.787-1.493-5.574-2.214-8.365c-1.291-5.002-0.582-6.258,4.261-7.582c1.172-0.32,2.343-0.668,3.536-0.879
		c2.649-0.467,4.031-1.836,3.618-4.664c-0.064-0.439-0.062-0.951,0.1-1.355c2.599-6.488,0.628-10.764-5.948-13.279
		c-2.811-1.074-3.07-3.566-1.643-6.092c2.091-3.701,4.263-7.357,6.404-11.031c1.489-2.557,3.532-3.172,6.144-1.729
		c0.93,0.516,1.94,0.939,2.755,1.6c3.206,2.604,5.488,1.895,9.022-0.447c5.527-3.664,7.728-7.273,4.845-13.561
		c-1.209-2.637,0.016-4.777,2.929-5.576c4.245-1.162,8.509-2.262,12.774-3.346c2.946-0.75,4.976,0.471,5.259,3.402
		c0.632,6.535,3.904,8.781,10.505,9.316c4.671,0.377,6.791-0.533,8.804-4.436c3.078-5.969,3.892-5.996,9.854-2.527
		c2.756,1.604,5.515,3.207,8.298,4.764c2.989,1.672,3.559,3.926,1.786,6.828c-0.633,1.037-1.108,2.193-1.857,3.133
		c-2.146,2.695-1.448,4.588,0.444,7.479c3.765,5.748,7.612,8.869,14.673,5.514c0.984-0.469,4.153,1.316,4.691,2.693
		c1.65,4.213,2.542,8.729,3.67,13.141c0.776,3.039-0.825,4.957-3.565,5.215c-6.665,0.625-8.754,4.082-9.208,10.604
		c-0.317,4.559,0.504,6.756,4.487,8.732c5.821,2.891,5.929,4.002,2.753,9.484c-1.675,2.891-3.418,5.744-5.054,8.658
		c-1.677,2.986-3.885,3.611-6.801,1.787c-1.029-0.645-2.213-1.08-3.143-1.838c-2.691-2.188-5.109-2.326-7.355,0.594
		c-0.27,0.352-0.66,0.66-1.06,0.855c-5.602,2.701-7.531,6.563-4.801,12.643c0.573,1.275-0.604,4.686-1.768,5.158
		C329.715,387.531,324.651,388.701,319.019,390.352z M344.749,332.115c0-17.908-14.521-32.574-32.31-32.633
		c-17.797-0.061-32.595,14.605-32.631,32.338c-0.035,18.141,14.612,32.918,32.565,32.857
		C330.2,364.619,344.749,349.984,344.749,332.115z"/>
	<path fill-rule="evenodd" clip-rule="evenodd" d="M453.666,255.684c-4.374,0-8.747,0.178-13.084-0.141
		c-0.954-0.068-2.193-1.756-2.589-2.934c-1.138-3.385-3.557-4.925-6.82-5.049c-3.103-0.118-6.242,1.075-6.413,4.432
		c-0.115,2.291,1.157,5.27,2.833,6.867c1.847,1.762,4.897,2.227,7.364,3.383c4.243,1.986,8.749,3.615,12.601,6.205
		c8.846,5.947,8.049,18.059-1.438,23.033c-3.3,1.729-7.077,2.547-10.799,3.836c-1.886,7.459-1.886,7.459-7.313,6.541
		c-0.13-0.473-0.498-1.068-0.405-1.584c0.829-4.586-1.63-5.805-5.66-6.572c-6.457-1.229-12.188-4.037-14.607-10.85
		c-0.631-1.777-0.614-3.787-0.945-6.031c5.169,0,9.829,0,15.22,0c0.186,5.031,3.055,8.16,8.342,8.568
		c3.341,0.258,6.61-0.279,7.709-4.084c1.075-3.721-0.41-6.621-3.961-8.17c-5.971-2.604-12.272-4.568-17.961-7.67
		c-9.636-5.252-9.645-17.558-0.246-23.326c2.278-1.397,4.937-2.461,7.557-2.941c3.514-0.645,5.683-1.44,5.449-5.858
		c-0.279-5.269,3.93-2.291,6.122-2.908c0.335,0.454,0.691,0.717,0.666,0.935c-0.61,5.217,1.635,7.396,6.854,8.752
		C449.85,242.124,453.329,247.548,453.666,255.684z"/>
	<path fill-rule="evenodd" clip-rule="evenodd" d="M330.204,339.465c1.226,1.027,2.358,1.975,3.704,3.1
		c-0.789,1.193-1.504,2.275-2.28,3.451c-1.457-0.725-2.66-1.324-4.071-2.027c-4.888,4.254-9.445,10.018-17.696,5.084
		c1.429-2.32,2.572-4.604,4.148-6.535c0.63-0.771,2.228-0.727,3.359-1.125c1.767-0.623,4.205-0.824,5.089-2.09
		c1.083-1.551,0.857-4.016,1.197-6.084c-2.197-0.211-4.742-1.219-6.512-0.447c-2.842,1.238-5.039,3.873-7.759,5.5
		c-2.162,1.291-4.639,2.51-7.082,2.768c-4.241,0.451-8.424-3.33-8.563-7.721c-0.103-3.246,0.729-6.523,1.229-10.453
		c-0.597-0.537-1.798-1.617-3.222-2.896c0.735-1.143,1.429-2.221,2.291-3.561c2.981,2.646,5.183,1.986,7.88-0.463
		c3.458-3.137,7.717-4.07,12.589-0.934c-2.732,3.174-2.435,9.02-9.196,7.828c-1.094-0.191-3.098,2.17-3.86,3.748
		c-0.431,0.891,0.457,3.311,1.378,3.76c1.394,0.684,3.664,0.869,4.978,0.17c3.056-1.629,5.684-4.035,8.629-5.9
		c5.169-3.275,9.112-3.324,12.601-0.42c3.294,2.744,3.99,6.99,2.064,12.572C330.807,337.635,330.53,338.486,330.204,339.465z"/>
</g>
</svg>
